<svg width="81" height="29" viewBox="0 0 81 29" fill="none" xmlns="http://www.w3.org/2000/svg">
<path d="M24.4066 18.212C26.1019 18.8518 27.851 19.3457 29.6341 19.6881V4.6545C29.6356 4.04479 29.5144 3.44074 29.2774 2.87685C29.0405 2.31297 28.6923 1.80028 28.2528 1.36807C27.8134 0.935861 27.2912 0.592589 26.7162 0.357855C26.1412 0.123121 25.5245 0.00152143 24.9015 0L4.75035 0C4.12601 0.000380642 3.50787 0.121123 2.93123 0.35533C2.35458 0.589537 1.83073 0.932621 1.3896 1.36499C0.948475 1.79735 0.598707 2.31052 0.360278 2.87519C0.12185 3.43986 -0.000569132 4.04497 1.4846e-05 4.65595V24.3455C-0.00154374 24.9552 0.119631 25.5593 0.356621 26.1231C0.593611 26.687 0.941775 27.1997 1.38123 27.6319C1.82069 28.0641 2.34284 28.4074 2.91786 28.6421C3.49289 28.8769 4.10953 28.9985 4.73257 29H24.8837C25.5081 28.9996 26.1262 28.8789 26.7028 28.6447C27.2795 28.4105 27.8033 28.0674 28.2445 27.635C28.6856 27.2027 29.0354 26.6895 29.2738 26.1248C29.5122 25.5601 29.6346 24.955 29.6341 24.3441V24.1846C29.6341 24.1846 21.9425 21.0497 18.0471 19.2038C15.4379 22.3068 12.064 24.186 8.57314 24.186C2.66263 24.186 0.665299 19.1342 3.46423 15.7963C4.32523 14.879 5.46879 14.2619 6.72101 14.0389C9.23991 13.4328 13.2524 14.4159 17.004 15.6296C17.7034 14.3594 18.262 13.0196 18.668 11.6319H7.09737V10.4806H13.0612V8.4419H5.81125V7.30075H13.0538V4.34855C13.0525 4.28197 13.0652 4.21583 13.0912 4.15428C13.1172 4.09272 13.1558 4.03707 13.2048 3.9908C13.2537 3.94454 13.3119 3.90864 13.3757 3.88537C13.4394 3.8621 13.5074 3.85195 13.5754 3.85555H16.4988V7.30075H23.6509V8.4419H16.4988V10.498H22.3367C21.8209 12.6404 20.9878 14.6975 19.8637 16.6039C21.664 17.2361 23.2109 17.8162 24.3622 18.2207L24.4066 18.212ZM6.85733 15.0104C5.86459 15.0974 4.91334 15.4454 4.10433 16.0153C1.94104 17.864 3.24939 21.244 7.60115 21.244C10.166 21.244 12.6804 19.6373 14.6896 17.1027C11.867 15.7223 9.45624 14.7683 6.85733 15.0104Z" fill="#3379F6"/>
<path d="M78.4961 20.1057L77.2307 22.7998L75.949 20.1057H74.7089L76.6499 23.7873V26.3726H77.8041V23.7873L79.7452 20.0897H78.4961V20.1057ZM69.2547 21.7297L70.1096 24.331H68.3998L69.2547 21.7282V21.7297ZM70.409 25.1343L70.8357 26.4059H72.0329L69.6992 20.1057H68.7657L66.4158 26.4059H67.613L68.0649 25.1343H70.409ZM61.4995 23.1333H60.2341V20.9757H61.4995C61.7813 20.9889 62.0464 21.1106 62.2368 21.3144C62.4273 21.5181 62.5276 21.7873 62.5159 22.0632C62.5265 22.2001 62.5081 22.3377 62.4618 22.4673C62.4156 22.5969 62.3424 22.7157 62.247 22.8163C62.1515 22.9169 62.0358 22.9972 61.9072 23.052C61.7786 23.1068 61.6398 23.1349 61.4995 23.1347V23.1333ZM61.5587 20.1057H59.0799V26.4059H60.2341V23.9801H61.5587C61.8299 23.9979 62.1018 23.961 62.3578 23.8717C62.6137 23.7824 62.8482 23.6426 63.0466 23.461C63.2451 23.2793 63.4033 23.0597 63.5115 22.8158C63.6197 22.5719 63.6755 22.3088 63.6755 22.0429C63.6755 21.777 63.6197 21.5139 63.5115 21.27C63.4033 21.026 63.2451 20.8065 63.0466 20.6248C62.8482 20.4432 62.6137 20.3034 62.3578 20.2141C62.1018 20.1248 61.8299 20.0879 61.5587 20.1057ZM53.2657 26.4059H54.4199V20.1057H53.2642V26.4059H53.2657ZM45.1607 20.1057V26.4059H49.0428V25.5693H46.315V20.1057H45.1593H45.1607ZM38.5938 21.7297L39.4488 24.331H37.6707L38.5938 21.7282V21.7297ZM39.7481 25.1343L40.1748 26.4059H41.372L39.0206 20.1057H38.0975L35.746 26.4059H36.9432L37.3966 25.1343H39.7481ZM47.8782 7.81405H42.9293V6.07405H48.665V4.98655H42.9278V2.78545H40.3645C40.2971 2.78537 40.2305 2.7987 40.1685 2.82464C40.1066 2.85057 40.0507 2.88857 40.0043 2.93632C39.9578 2.98407 39.9218 3.04057 39.8984 3.10238C39.875 3.16419 39.8647 3.23002 39.8681 3.29585V4.96915H34.1976V6.05665H39.8829V7.81405H35.0526V8.90155H44.6362C44.0197 10.5812 42.9214 12.0513 41.4728 13.1356C40.2387 12.2876 39.1752 11.2238 38.336 9.99775H35.7712C36.8144 11.7031 38.2129 13.1744 39.8755 14.3159C38.0764 15.4326 36.125 16.2947 34.0791 16.8766V18.1641C36.69 17.6141 39.1971 16.6685 41.5098 15.3613C43.7906 16.6455 46.254 17.5901 48.8191 18.1641V16.9433C46.8407 16.2531 44.9408 15.3639 43.1501 14.2897C45.4235 12.711 47.0887 10.4303 47.8782 7.81405ZM63.9191 2.98555H61.3543V5.63035H55.0007V6.7019H61.3454V16.2067C61.3341 16.3094 61.2873 16.4053 61.2126 16.4784C61.1379 16.5514 61.04 16.5973 60.9349 16.6083H59.6266V17.6958H62.9693C63.2274 17.6814 63.4707 17.573 63.6511 17.3918C63.8316 17.2107 63.9362 16.9699 63.9443 16.7171V6.6758H64.9785V5.6318H63.9191V2.98555ZM58.4976 8.4854C58.4518 8.38891 58.3778 8.3079 58.285 8.25265C58.1921 8.1974 58.0846 8.17041 57.976 8.1751H55.8394L57.5493 13.3371H60.1141L58.5746 8.4854H58.4976ZM80.8653 17.5218L79.9585 14.5174C79.9292 14.4218 79.8693 14.3378 79.7877 14.2778C79.7062 14.2178 79.6072 14.1849 79.5051 14.1839H77.1196L77.8041 16.501H74.983V12.0234H80.5142V10.9519H74.9993V8.8595H80.5319V7.7894H66.6884V8.8595H72.2463V10.9519H66.6899V12.0234H72.2463V16.4996H66.6899V17.5711H80.8653V17.5203V17.5218ZM52.1544 2.86955L49.1954 9.73095H51.4535V17.9307H53.9324V7.0528H53.0093L54.8822 2.86955H52.1544ZM69.6044 5.25335H77.6589V6.81065H80.5482V4.9445C80.5506 4.74831 80.4739 4.55911 80.3346 4.41795C80.1954 4.2768 80.0049 4.19507 79.8044 4.1905H75.1534V2.71875H72.1529V4.18325H66.758V6.81065H69.6474V5.25335H69.6044Z" fill="black"/>
</svg>
