<svg width="89" height="28" viewBox="0 0 89 28" fill="none" xmlns="http://www.w3.org/2000/svg">
<g clip-path="url(#clip0_1091_69)">
<path fill-rule="evenodd" clip-rule="evenodd" d="M25.4386 14.5091H26.4727H27.9841C27.9841 14.3341 28 14.175 28 14C28 6.26818 21.7318 0 14 0C6.26818 0 0 6.26818 0 14C0 21.7318 6.26818 28 14 28C20.7773 28 26.425 23.1955 27.7136 16.8H25.1045C23.975 21.2864 20.1886 24.7227 15.5273 25.3591V19.6H22.6545V16.8H15.5273V14.5091H25.4386ZM25.2636 11.9636H16.7682L21.8273 5.64773C23.5932 7.28636 24.8182 9.48182 25.2636 11.9636ZM19.1068 3.75455L14 10.1341L8.89318 3.75455C10.4364 2.975 12.1705 2.54545 14 2.54545C15.8295 2.54545 17.5636 2.975 19.1068 3.75455ZM6.17273 5.64773L11.2318 11.9636H2.73636C3.16591 9.49773 4.40682 7.28636 6.17273 5.64773ZM12.4727 19.6V25.3432C7.03182 24.6114 2.8 20.0773 2.56136 14.5091H12.4727V16.8H5.34545V19.6H12.4727Z" fill="#FF0000"/>
</g>
<path d="M33.0497 9.89115V8.98076H33.721V8.24739H34.8895V8.98076H37.04V8.24739H38.2084V8.98076H38.83V9.89115H38.1587C38.0966 10.9533 37.7112 11.7499 36.9902 12.2683C37.1394 12.2936 37.388 12.3441 37.7485 12.4074C38.022 12.4959 38.2209 12.5591 38.37 12.5844V13.4568C37.388 13.2419 36.58 13.0016 35.9461 12.7235C35.2375 13.0143 34.2555 13.2672 33 13.4442V12.5717C33.721 12.4453 34.3425 12.3315 34.877 12.2051C34.1933 11.6614 33.8204 10.8774 33.7583 9.8785H33.0497V9.89115ZM38.743 8.3359C37.6366 7.8807 36.9529 7.14733 36.6795 6.14843H36.5427V8.1083H35.3743V6.14843H35.2002C34.9267 7.12205 34.2431 7.83013 33.1367 8.29797V7.5646C33.6464 7.17262 34.0069 6.69214 34.2182 6.14843H33.174V5.18747H35.3743V3H36.5427V5.18747H38.6062V5.95877C39.265 5.32655 39.6504 4.35294 39.7747 3.03793H41.0799C40.9929 3.53106 40.881 3.98626 40.7691 4.40352H43.4417V5.36449H42.8202C42.7953 7.76691 42.3851 9.5624 41.6144 10.751C42.0619 11.4211 42.6337 11.9775 43.3174 12.4327V13.4948C42.2111 12.7993 41.4155 12.1671 40.9432 11.6234C40.5205 12.1039 39.7374 12.7235 38.5689 13.4442V12.4453C39.2899 11.9269 39.8493 11.3705 40.2719 10.7636C39.6752 9.82793 39.2526 8.46234 39.0164 6.70478L38.5565 6.91974V6.14843H37.6988C37.8479 6.66685 38.196 7.13469 38.7305 7.5646V8.3359H38.743ZM33.808 4.87136C33.5967 4.47938 33.4475 3.94832 33.3605 3.27817H34.3922C34.4792 3.8851 34.616 4.41616 34.79 4.87136H33.808ZM35.9088 11.7119C36.5676 11.282 36.9281 10.6751 36.9902 9.89115H34.9267C34.9889 10.713 35.3121 11.32 35.9088 11.7119ZM37.127 4.87136C37.301 4.41616 37.4377 3.8851 37.5248 3.27817H38.5565C38.4695 3.94832 38.3203 4.47938 38.109 4.87136H37.127ZM40.9307 9.5624C41.3782 8.5635 41.6144 7.15998 41.6517 5.36449H40.3589C40.2098 5.64266 40.0109 5.89555 39.7747 6.13579H40.1725C40.2968 7.60253 40.5454 8.74052 40.9307 9.5624Z" fill="black"/>
<path d="M44.4734 10.1187V9.11985H49.1349V8.43705C49.8559 8.13359 50.5271 7.69104 51.1486 7.1094H46.2634V6.14843H53.2121V7.14733C52.4041 7.81748 51.5713 8.34854 50.7011 8.74052V9.1072H54.8778V10.1061H50.7136V11.851C50.7384 12.9131 50.2163 13.4189 49.1473 13.3557H47.6681V12.3947H48.5631C48.9857 12.42 49.1722 12.2303 49.1473 11.8004V10.1187H44.4734ZM44.8339 5.87026V3.91039H48.8241V3H50.5271V3.91039H54.5173V5.81968H53.1251V4.85871H46.2261V5.85761H44.8339V5.87026Z" fill="black"/>
<path d="M66.314 13.4444C63.5668 11.8386 61.839 9.92929 61.1553 7.74182C60.4965 9.904 58.781 11.8006 55.9966 13.4444V12.3949C58.9551 10.081 60.4219 7.29927 60.3846 4.04968V3.05078H61.9136V4.04968C61.8887 7.29927 63.3555 10.081 66.314 12.3949V13.4444Z" fill="black"/>
<path d="M68.2905 13.4948V3.3667H77.1287V5.37714C77.1536 6.41398 76.6315 6.93239 75.5624 6.93239H74.1702C74.2324 7.4761 74.2572 7.99452 74.2572 8.48764H77.8V9.48655H74.394C74.6674 11.3958 75.2144 12.3694 76.0472 12.4074C76.4947 12.4074 76.7185 12.1545 76.7185 11.6361H77.7502C77.7502 12.8246 77.1909 13.4189 76.097 13.4189C74.481 13.4442 73.4492 12.1671 73.0017 9.5877C73.0017 9.52448 72.9893 9.49919 72.952 9.49919H69.7201V11.851C70.4659 11.6361 71.1123 11.4085 71.6468 11.1682V12.2683C70.6275 12.7488 69.5087 13.1534 68.2905 13.4948ZM69.7201 4.32767V5.97143H75.1025C75.5252 5.99672 75.7116 5.79441 75.6868 5.33921V4.34031H69.7201V4.32767ZM72.8153 8.475C72.7531 7.99452 72.7283 7.4761 72.7283 6.91975H69.7201V8.475H72.8153Z" fill="black"/>
<path d="M79.2668 4.6437V3.63216H85.4946C86.5139 3.65745 87.6824 3.531 88.9876 3.22754V4.27702C87.8813 4.55519 86.8247 4.66899 85.8054 4.6437H84.8606V6.23689H88.5774V10.5739C88.6395 11.7624 88.0553 12.3314 86.8247 12.3062H85.8426V11.3073H86.4642C86.9365 11.3325 87.1603 11.0923 87.1354 10.5739V7.23579H84.8482V13.4947H83.3192V7.23579H81.0817V12.3441H79.6522V6.23689H83.3317V4.6437H79.2668Z" fill="black"/>
<path d="M46.8603 24.546V25.8863H41.9377V17.7812H46.6614V19.1089H43.4419V21.0814H46.4252V22.3458H43.4419V24.546H46.8603Z" fill="black"/>
<path d="M50.5894 21.7139H54.0699V22.9024H50.5894V21.7139Z" fill="black"/>
<path d="M57.9485 21.8401C57.9485 18.717 59.4277 17.6675 61.7523 17.6675C62.523 17.6675 63.0823 17.7433 63.5796 17.9204V19.2607C63.0823 19.0836 62.5354 18.9825 61.8517 18.9825C60.2854 18.9825 59.5645 19.6653 59.5645 21.8148C59.5645 24.0908 60.2606 24.6471 61.7896 24.6471C62.4857 24.6471 63.0575 24.5586 63.6666 24.331V25.646C63.1942 25.8357 62.5105 25.9874 61.7274 25.9874C59.4402 26.0001 57.9485 25.2414 57.9485 21.8401Z" fill="black"/>
<path d="M65.0835 17.7812H67.3956L70.2919 23.8885H70.3665V17.7812H71.8333V25.8863H69.7947L66.6498 19.3997H66.5627V25.8863H65.0835V17.7812Z" fill="black"/>
<path d="M75.662 22.5861L72.803 17.7812H74.5557L76.4203 21.1699H76.4949L78.3719 17.7812H80.0625L77.1786 22.5608V25.8863H75.662V22.5861Z" fill="black"/>
<defs>
<clipPath id="clip0_1091_69">
<rect width="28" height="28" fill="white"/>
</clipPath>
</defs>
</svg>
