<svg width="90" height="29" viewBox="0 0 90 29" fill="none" xmlns="http://www.w3.org/2000/svg">
<path d="M23.3804 0H5.00897C2.24259 0 0 2.24259 0 5.00897V23.3804C0 26.1467 2.24259 28.3893 5.00897 28.3893H23.3804C26.1467 28.3893 28.3893 26.1467 28.3893 23.3804V5.00897C28.3893 2.24259 26.1467 0 23.3804 0Z" fill="#E50012"/>
<path fill-rule="evenodd" clip-rule="evenodd" d="M27.9142 17.1477V23.0727C27.9101 24.3552 27.3987 25.5839 26.4915 26.4904C25.5844 27.3969 24.3554 27.9076 23.0729 27.9109H5.31952C4.03737 27.9076 2.80864 27.3968 1.90202 26.4902C0.995393 25.5836 0.484602 24.3549 0.481323 23.0727V17.0576C4.01214 19.0388 8.8907 20.2655 14.2816 20.2655C19.5856 20.2655 24.3927 19.0761 27.9142 17.1477Z" fill="white"/>
<path fill-rule="evenodd" clip-rule="evenodd" d="M11.5303 21.7529H13.4183C13.2702 21.7551 13.1269 21.8053 13.0098 21.8961C12.8927 21.9868 12.8083 22.1131 12.7693 22.256L11.8687 26.116C11.8515 26.1778 11.8494 26.2428 11.8628 26.3055C11.8761 26.3683 11.9044 26.4269 11.9453 26.4763C11.9862 26.5257 12.0384 26.5645 12.0975 26.5894C12.1566 26.6143 12.2209 26.6244 12.2849 26.6191H10.3937C10.33 26.6239 10.2661 26.6133 10.2074 26.5882C10.1487 26.5631 10.0969 26.5243 10.0564 26.4749C10.0158 26.4256 9.98779 26.3672 9.97462 26.3047C9.96145 26.2422 9.9635 26.1775 9.98065 26.116L10.8812 22.256C10.922 22.1141 11.0069 21.9889 11.1236 21.8985C11.2403 21.808 11.3827 21.7571 11.5303 21.7529V21.7529Z" fill="#E50012"/>
<path fill-rule="evenodd" clip-rule="evenodd" d="M13.499 21.7531H15.7815C15.6221 21.75 15.4658 21.7968 15.3343 21.887C15.2029 21.9772 15.103 22.1063 15.0486 22.2561L14.0363 26.1161C13.9648 26.3925 14.1946 26.6192 14.53 26.6192H12.3562C11.8128 26.6192 11.819 26.3087 11.8656 26.1161L12.7755 22.2561C12.8314 21.9798 13.0053 21.7531 13.499 21.7531Z" fill="#0051A1"/>
<path fill-rule="evenodd" clip-rule="evenodd" d="M15.7194 21.7533H17.7814C17.8476 21.7479 17.9142 21.7587 17.9753 21.7849C18.0364 21.8111 18.0901 21.8519 18.1318 21.9037C18.1734 21.9555 18.2018 22.0167 18.2143 22.082C18.2269 22.1472 18.2232 22.2146 18.2037 22.2781L17.2255 26.0946C17.1793 26.2428 17.088 26.3729 16.9645 26.467C16.841 26.561 16.6913 26.6143 16.5362 26.6195H14.4742C14.1978 26.6195 13.94 26.4611 14.0363 26.0884L15.03 22.2781C15.0763 22.13 15.1675 21.9999 15.2911 21.9058C15.4146 21.8118 15.5643 21.7585 15.7194 21.7533V21.7533Z" fill="#00909E"/>
<path fill-rule="evenodd" clip-rule="evenodd" d="M8.73227 15.0577C8.70155 15.1907 8.65892 15.3206 8.60494 15.4459C8.52208 15.6223 8.39991 15.7774 8.24781 15.8993C8.01905 16.0904 7.72917 16.1929 7.4311 16.1881C7.30097 16.1999 7.16999 16.1775 7.05123 16.123C6.93246 16.0685 6.83006 15.9839 6.75415 15.8775C6.67898 15.7614 6.64303 15.6243 6.65164 15.4863C6.66021 15.3364 6.68307 15.1877 6.71995 15.0422L7.06468 13.5889H7.664L7.35346 15.0608C7.32862 15.1695 7.30997 15.2502 7.30066 15.3061C7.27976 15.3717 7.28126 15.4424 7.30486 15.507C7.32847 15.5716 7.37286 15.6266 7.4311 15.6633C7.48174 15.6934 7.53991 15.7084 7.5988 15.7067C7.66941 15.7078 7.7394 15.6934 7.8038 15.6644C7.8682 15.6354 7.92542 15.5926 7.97143 15.539C8.07309 15.3971 8.14009 15.2333 8.16707 15.0608L8.47761 13.5889H9.07696L8.73227 15.0577Z" fill="white"/>
<path fill-rule="evenodd" clip-rule="evenodd" d="M11.9681 13.676C11.9464 13.7709 11.8927 13.8553 11.8159 13.9151C11.7468 13.9776 11.6575 14.0129 11.5644 14.0145C11.5255 14.0164 11.4868 14.0082 11.452 13.9908C11.4172 13.9734 11.3875 13.9474 11.3656 13.9151C11.3433 13.8799 11.329 13.8403 11.3236 13.799C11.3183 13.7577 11.322 13.7157 11.3346 13.676C11.3576 13.5848 11.4092 13.5034 11.4819 13.4436C11.5545 13.3838 11.6443 13.3488 11.7383 13.3437C11.7769 13.3412 11.8155 13.3487 11.8504 13.3656C11.8852 13.3825 11.9151 13.4081 11.937 13.44C11.9593 13.4746 11.9736 13.5137 11.9789 13.5545C11.9843 13.5953 11.9806 13.6368 11.9681 13.676ZM11.434 16.2007L10.8967 16.1231L11.257 14.2132L11.7818 14.266L11.434 16.2007Z" fill="white"/>
<path fill-rule="evenodd" clip-rule="evenodd" d="M18.1322 14.4711C18.0578 14.6797 17.923 14.8613 17.7449 14.993C17.5668 15.1246 17.3535 15.2002 17.1323 15.2102H16.7286L16.5081 16.1946H15.974L16.5951 13.5581L17.6633 13.6078C18.2099 13.6326 18.2564 14.0332 18.1447 14.4773L18.1322 14.4711ZM17.5826 14.4338C17.6727 14.0736 17.6074 13.9339 17.2503 13.9339H17.0236L16.8435 14.794C17.1541 14.8003 17.4894 14.8127 17.5826 14.4338Z" fill="white"/>
<path fill-rule="evenodd" clip-rule="evenodd" d="M13.1172 14.2008C13.2331 14.1987 13.3477 14.2247 13.4513 14.2765C13.5549 14.3284 13.6445 14.4046 13.7122 14.4986C13.78 14.5926 13.824 14.7016 13.8404 14.8163C13.8568 14.931 13.8452 15.048 13.8066 15.1573C13.7417 15.4173 13.5957 15.65 13.3896 15.8214C13.1836 15.9928 12.9282 16.0941 12.6607 16.1106C12.5449 16.1131 12.4303 16.0874 12.3266 16.036C12.2229 15.9845 12.1332 15.9087 12.0652 15.815C11.9971 15.7213 11.9528 15.6126 11.9359 15.498C11.919 15.3835 11.9301 15.2666 11.9682 15.1573C12.0335 14.8966 12.18 14.6634 12.3866 14.4915C12.5931 14.3196 12.849 14.2178 13.1172 14.2008V14.2008ZM13.0799 14.6759C12.8439 14.6759 12.6793 14.9461 12.6141 15.2225C12.5489 15.4989 12.583 15.6665 12.7352 15.7255C12.8874 15.7845 13.1203 15.5485 13.201 15.2846C13.2818 15.0206 13.3191 14.6759 13.0799 14.6759V14.6759Z" fill="white"/>
<path fill-rule="evenodd" clip-rule="evenodd" d="M10.5024 16.2006H9.99932L10.2384 15.0454C10.2881 14.8187 10.3254 14.5454 10.0459 14.5299C9.9891 14.5202 9.93086 14.5226 9.87506 14.5371C9.81927 14.5515 9.76718 14.5777 9.72226 14.6138C9.67733 14.6499 9.6406 14.6952 9.61449 14.7466C9.58837 14.7979 9.57347 14.8543 9.57078 14.9119L9.32233 16.2006H8.87207L9.07082 14.9119C9.11429 14.6386 9.13911 14.5206 9.31923 14.3777C9.49567 14.2576 9.70115 14.187 9.91418 14.1733C10.1272 14.1597 10.34 14.2035 10.5303 14.3001C10.6918 14.384 10.7415 14.7255 10.6887 15.0454L10.5024 16.2006Z" fill="white"/>
<path fill-rule="evenodd" clip-rule="evenodd" d="M15.6138 16.2005H15.1139L15.353 15.0453C15.3996 14.8186 15.44 14.5454 15.1605 14.5298C15.1037 14.5201 15.0454 14.5225 14.9896 14.537C14.9338 14.5515 14.8817 14.5776 14.8368 14.6137C14.7919 14.6498 14.7552 14.6951 14.729 14.7465C14.7029 14.7979 14.688 14.8542 14.6853 14.9118L14.4369 16.2005H13.9835L14.1854 14.9118C14.1833 14.81 14.2043 14.7091 14.2467 14.6166C14.2892 14.5241 14.3521 14.4424 14.4307 14.3777C14.6078 14.2575 14.8137 14.187 15.0272 14.1733C15.2407 14.1597 15.454 14.2034 15.6449 14.3C15.8033 14.3839 15.8561 14.7255 15.8033 15.0453L15.6138 16.2005Z" fill="white"/>
<path fill-rule="evenodd" clip-rule="evenodd" d="M18.5763 16.2008C18.4961 16.2075 18.4153 16.1971 18.3393 16.1703C18.2633 16.1436 18.1938 16.101 18.1354 16.0455C18.0872 15.9918 18.052 15.9278 18.0326 15.8583C18.0133 15.7888 18.0101 15.7158 18.0236 15.6449C18.0358 15.5524 18.0676 15.4634 18.1168 15.3841C18.1647 15.3103 18.227 15.2469 18.3 15.1978C18.3734 15.1491 18.4541 15.1124 18.5391 15.0891C18.6319 15.0653 18.7264 15.0486 18.8217 15.0394C18.9977 15.0232 19.1709 14.9846 19.3372 14.9245C19.3372 14.8313 19.4148 14.6139 19.3372 14.558C19.2595 14.5021 19.2036 14.4959 19.0484 14.4959C18.9162 14.4997 18.7858 14.527 18.6633 14.5767C18.5913 14.6016 18.5225 14.635 18.4583 14.676V14.3935C18.6281 14.2407 18.8514 14.1614 19.0794 14.173C19.2073 14.1675 19.3351 14.1875 19.4552 14.232C19.5341 14.2589 19.6025 14.31 19.6508 14.3779C19.6937 14.4459 19.7173 14.5243 19.7191 14.6046C19.7204 14.7086 19.7131 14.8124 19.6974 14.9152L19.6415 15.353C19.6186 15.5966 19.6082 15.8412 19.6104 16.0859C19.4831 16.1076 18.7006 16.2101 18.567 16.2101L18.5763 16.2008ZM19.2906 15.2381C19.1415 15.2785 18.9884 15.3024 18.8341 15.3095C18.7386 15.3196 18.6447 15.3415 18.5546 15.3748C18.5006 15.3973 18.4534 15.4337 18.418 15.4803C18.3835 15.5254 18.362 15.5791 18.3559 15.6356C18.3487 15.6749 18.3508 15.7153 18.3622 15.7536C18.3735 15.7919 18.3937 15.827 18.4211 15.8561C18.4571 15.8873 18.499 15.9111 18.5443 15.926C18.5896 15.941 18.6375 15.9467 18.685 15.943C18.8002 15.9441 18.9136 15.9152 19.0142 15.8592C19.1106 15.8056 19.191 15.7274 19.2471 15.6325C19.2885 15.5741 19.3146 15.5064 19.3233 15.4354C19.332 15.3644 19.3229 15.2923 19.2968 15.2257L19.2906 15.2381Z" fill="white"/>
<path fill-rule="evenodd" clip-rule="evenodd" d="M20.2005 14.2505L20.7284 14.2598L20.8836 15.5206L21.6041 14.2505H22.1289L20.6383 16.8373H20.0576L20.4737 16.1106L20.2005 14.2505Z" fill="white"/>
<path d="M8.64227 5.23584H3.20166C2.93239 5.23584 2.71411 5.45412 2.71411 5.72338V5.72649C2.71411 5.99575 2.93239 6.21403 3.20166 6.21403H8.64227C8.91154 6.21403 9.12982 5.99575 9.12982 5.72649V5.72338C9.12982 5.45412 8.91154 5.23584 8.64227 5.23584Z" fill="white"/>
<path d="M11.3439 6.40967H11.3408C11.0716 6.40967 10.8533 6.62795 10.8533 6.89721V11.3596C10.8533 11.6289 11.0716 11.8472 11.3408 11.8472H11.3439C11.6132 11.8472 11.8315 11.6289 11.8315 11.3596V6.89721C11.8315 6.62795 11.6132 6.40967 11.3439 6.40967Z" fill="white"/>
<path fill-rule="evenodd" clip-rule="evenodd" d="M21.6973 7.55206L23.4704 9.32524C23.576 9.43082 23.5201 9.63577 23.4207 9.76309C23.3953 9.79568 23.3636 9.82285 23.3276 9.84303C23.2915 9.86321 23.2518 9.87599 23.2107 9.88062C23.1696 9.88525 23.1281 9.88163 23.0884 9.86998C23.0488 9.85833 23.0118 9.83888 22.9798 9.81278L21.2097 8.03961C21.165 7.97251 21.1454 7.89173 21.1545 7.8116C21.1636 7.73146 21.2008 7.65712 21.2594 7.60175C21.3151 7.54365 21.3894 7.50688 21.4693 7.4978C21.5493 7.48873 21.63 7.50792 21.6973 7.55206V7.55206Z" fill="white"/>
<path fill-rule="evenodd" clip-rule="evenodd" d="M19.3713 11.3067V7.26976L20.3278 6.31641C20.3415 6.3628 20.3488 6.41087 20.3495 6.45926V11.3067C20.3495 11.371 20.3368 11.4347 20.3121 11.494C20.2874 11.5534 20.2512 11.6073 20.2056 11.6526C20.16 11.6979 20.1059 11.7338 20.0464 11.7581C19.9869 11.7824 19.9232 11.7947 19.8589 11.7943V11.7943C19.7296 11.7943 19.6056 11.7429 19.5141 11.6515C19.4227 11.5601 19.3713 11.4361 19.3713 11.3067V11.3067Z" fill="white"/>
<path fill-rule="evenodd" clip-rule="evenodd" d="M16.4585 8.26007L16.6231 8.08928V6.56764C16.6231 6.17947 16.3591 6.12358 15.9275 6.11426L12.0706 6.08942L11.3377 5.46834C11.0272 5.24476 11.4371 4.55226 11.9588 4.96838L12.493 5.35034H16.7132C17.297 5.37829 17.5516 5.72298 17.5361 6.32543V7.16388L19.5701 5.06464C19.6619 4.97399 19.7858 4.92317 19.9148 4.92317C20.0438 4.92317 20.1677 4.97399 20.2595 5.06464V5.06464C20.3502 5.15647 20.401 5.28031 20.401 5.40934C20.401 5.53837 20.3502 5.66221 20.2595 5.75404L17.1541 8.95878C16.9119 9.20721 16.3095 9.99598 15.9803 9.67302L13.9773 7.71043C13.9245 7.65763 14.0984 8.21039 14.0394 8.2725C13.4867 8.86252 12.9463 9.41217 12.7196 9.59849C12.6358 9.65358 12.5347 9.67625 12.4354 9.66229C12.336 9.64832 12.2452 9.59867 12.1797 9.5226C12.1143 9.44653 12.0788 9.34924 12.0799 9.24892C12.0809 9.14859 12.1185 9.05209 12.1855 8.97742C12.4557 8.68551 13.0395 8.04581 13.8966 7.19183C14.055 7.03345 14.3934 6.74776 14.6605 7.01172L16.2132 8.5644C16.2883 8.45772 16.3702 8.35606 16.4585 8.26007V8.26007Z" fill="white"/>
<path fill-rule="evenodd" clip-rule="evenodd" d="M23.5449 10.8469H24.4331L24.4113 6.94962H21.5513C21.487 6.94963 21.4234 6.93691 21.364 6.91221C21.3046 6.88752 21.2507 6.85133 21.2054 6.80573C21.1601 6.76013 21.1243 6.70601 21.0999 6.6465C21.0756 6.58699 21.0633 6.52326 21.0637 6.45897V6.45897C21.0637 6.32967 21.1151 6.20566 21.2065 6.11423C21.298 6.02279 21.422 5.97143 21.5513 5.97143H24.4051V5.30998C24.4047 5.2457 24.417 5.18196 24.4413 5.12245C24.4656 5.06294 24.5015 5.00883 24.5468 4.96323C24.5921 4.91763 24.646 4.88144 24.7053 4.85674C24.7647 4.83205 24.8284 4.81933 24.8926 4.81934V4.81934C25.0228 4.81934 25.1476 4.87103 25.2396 4.96304C25.3316 5.05506 25.3833 5.17985 25.3833 5.30998V5.97143H26.0044C26.1334 5.97224 26.257 6.02387 26.3482 6.11513C26.4395 6.20638 26.4911 6.32992 26.4919 6.45897V6.45897C26.4919 6.58857 26.4407 6.7129 26.3493 6.80482C26.258 6.89675 26.134 6.9488 26.0044 6.94962H25.3833V11.0767C25.3838 11.2111 25.3335 11.3408 25.2425 11.4398C25.1516 11.5388 25.0266 11.5999 24.8926 11.6108H23.5294C23.2344 11.6108 23.1909 10.8469 23.5449 10.8469Z" fill="white"/>
<path fill-rule="evenodd" clip-rule="evenodd" d="M15.6914 11.0305H16.5826V10.0337C16.7894 9.84721 16.9844 9.64809 17.1665 9.43745L17.5329 9.05859V11.2603C17.5341 11.3945 17.4845 11.5241 17.3941 11.6232C17.3036 11.7223 17.179 11.7835 17.0453 11.7944H15.6821C15.4088 11.7944 15.3498 11.0305 15.6914 11.0305Z" fill="white"/>
<path fill-rule="evenodd" clip-rule="evenodd" d="M3.86926 8.48405L3.05876 10.428C2.87244 11.105 3.26681 11.7944 3.86926 11.7944H8.32857C8.49459 11.7981 8.65905 11.7616 8.80787 11.6879C8.95669 11.6143 9.08545 11.5056 9.18312 11.3713C9.28079 11.237 9.34448 11.0811 9.36871 10.9168C9.39295 10.7525 9.377 10.5848 9.32228 10.428C9.17632 10.0678 9.01176 9.70757 8.88134 9.34424C8.5708 8.8598 7.86587 9.27592 8.02114 9.77589C8.12462 9.95925 8.2139 10.1503 8.2882 10.3473C8.42794 10.723 8.24784 10.8317 7.87209 10.8286H4.52759C4.21706 10.8286 4.10216 10.6671 4.21706 10.2883L4.88161 8.48405H9.17322C9.30281 8.48323 9.42684 8.43118 9.51818 8.33925C9.60953 8.24732 9.66079 8.123 9.66079 7.99341V7.99341C9.65997 7.86435 9.60834 7.74081 9.51708 7.64956C9.42583 7.5583 9.30228 7.50667 9.17322 7.50586H2.77305C2.644 7.50667 2.52045 7.5583 2.42919 7.64956C2.33794 7.74081 2.28634 7.86435 2.28552 7.99341C2.28552 8.123 2.33679 8.24732 2.42813 8.33925C2.51947 8.43118 2.64346 8.48323 2.77305 8.48405H3.86926Z" fill="white"/>
<path d="M47.7296 6.85986H34.8485C34.2088 6.85986 33.6902 7.37845 33.6902 8.01817C33.6902 8.65788 34.2088 9.17647 34.8485 9.17647H47.7296C48.3693 9.17647 48.8879 8.65788 48.8879 8.01817C48.8879 7.37845 48.3693 6.85986 47.7296 6.85986Z" fill="#4B4B4B"/>
<path d="M55.2912 10.7975C55.2912 10.1578 54.7726 9.63916 54.1329 9.63916C53.4932 9.63916 52.9746 10.1578 52.9746 10.7975V21.3588C52.9746 21.9986 53.4932 22.5172 54.1329 22.5172C54.7726 22.5172 55.2912 21.9986 55.2912 21.3588V10.7975Z" fill="#4B4B4B"/>
<path fill-rule="evenodd" clip-rule="evenodd" d="M78.6559 12.3472L82.8575 16.5457C83.1091 16.7972 82.9755 17.3065 82.7395 17.5829C82.6804 17.6609 82.606 17.726 82.5209 17.7745C82.4359 17.8229 82.3419 17.8535 82.2446 17.8645C82.1474 17.8756 82.0489 17.8668 81.9551 17.8386C81.8614 17.8105 81.7743 17.7637 81.6992 17.7009L77.5008 13.5024C77.2492 13.2509 77.3672 12.7168 77.6188 12.4652C77.8703 12.2137 78.392 12.0833 78.6559 12.3472Z" fill="#4B4B4B"/>
<path fill-rule="evenodd" clip-rule="evenodd" d="M73.1472 21.2408V11.6793L75.4111 9.41553C75.4434 9.52652 75.4602 9.6415 75.4608 9.75712V21.247C75.4599 21.554 75.3376 21.8481 75.1206 22.0651C74.9035 22.2822 74.6094 22.4045 74.3024 22.4053V22.4053C74.15 22.4049 73.9993 22.3744 73.8587 22.3157C73.7181 22.2569 73.5905 22.1709 73.4832 22.0628C73.3759 21.9546 73.291 21.8263 73.2333 21.6852C73.1757 21.5442 73.1464 21.3932 73.1472 21.2408V21.2408Z" fill="#4B4B4B"/>
<path fill-rule="evenodd" clip-rule="evenodd" d="M66.2469 14.027L66.6351 13.6233L66.6537 10.018C66.6879 9.08637 66.0327 8.96526 65.0048 8.94352L55.8657 8.88452L54.1329 7.39394C53.3814 6.86292 54.3658 5.22017 55.6266 6.20458L56.8904 7.11135H66.8277C68.2064 7.17967 68.8089 7.99328 68.7747 9.41864V11.4092L73.5881 6.44059C73.8023 6.22126 74.0946 6.09556 74.4012 6.09091C74.7078 6.08625 75.0038 6.20302 75.2246 6.41575V6.41575C75.4451 6.62918 75.5719 6.9214 75.5771 7.22823C75.5823 7.53506 75.4656 7.83143 75.2525 8.05228L67.9052 15.6387C67.3338 16.2287 65.9054 18.0982 65.1259 17.3342L60.3809 12.6762C60.2567 12.5551 60.6635 13.8655 60.5299 14.0084C59.2164 15.4058 57.937 16.7101 57.3966 17.1479C56.6172 17.769 55.2881 16.5983 56.1327 15.6822C56.7755 14.9835 58.1543 13.5084 60.1884 11.4527C60.5641 11.0738 61.3684 10.3968 62.0019 11.0241L65.6817 14.6667C65.8559 14.4413 66.0447 14.2276 66.2469 14.027V14.027Z" fill="#4B4B4B"/>
<path fill-rule="evenodd" clip-rule="evenodd" d="M83.0005 20.1478H85.1091L85.0563 10.9155H78.2804C77.9734 10.9147 77.6793 10.7924 77.4622 10.5754C77.2452 10.3583 77.1229 10.0642 77.1221 9.75721V9.75721C77.1229 9.45055 77.2453 9.15672 77.4624 8.94017C77.6795 8.72362 77.9737 8.60201 78.2804 8.60201H85.0315V7.03069C85.0323 6.72403 85.1547 6.4302 85.3718 6.21365C85.589 5.9971 85.8831 5.87549 86.1898 5.87549V5.87549C86.4964 5.87549 86.7906 5.9971 87.0077 6.21365C87.2249 6.4302 87.3472 6.72403 87.3481 7.03069V8.60201H88.8418C89.1484 8.60201 89.4425 8.72362 89.6597 8.94017C89.8768 9.15672 89.9992 9.45055 90.0001 9.75721V9.75721C89.9992 10.0642 89.8769 10.3583 89.6599 10.5754C89.4428 10.7924 89.1487 10.9147 88.8418 10.9155H87.3481V20.6912C87.3507 21.01 87.2329 21.318 87.0181 21.5535C86.8033 21.7891 86.5074 21.9347 86.1898 21.9613C85.2985 21.9613 83.8638 21.9613 82.9602 21.9613C82.3298 21.9613 82.1931 20.1478 83.0005 20.1478Z" fill="#4B4B4B"/>
<path fill-rule="evenodd" clip-rule="evenodd" d="M64.4304 20.5857H66.5389V18.2256C67.0297 17.784 67.4913 17.311 67.9208 16.8096L68.7903 15.9121V21.1291C68.793 21.4479 68.6751 21.7559 68.4603 21.9914C68.2455 22.227 67.9497 22.3726 67.632 22.3992C66.7408 22.3992 65.3061 22.3992 64.4024 22.3992C63.7596 22.4117 63.623 20.5857 64.4304 20.5857Z" fill="#4B4B4B"/>
<path fill-rule="evenodd" clip-rule="evenodd" d="M36.4261 14.552C35.7823 16.086 35.1416 17.6211 34.5039 19.1572C34.0661 20.7658 34.9977 22.3993 36.4261 22.3993H46.9844C47.3776 22.4063 47.7667 22.3184 48.1187 22.143C48.4706 21.9676 48.7751 21.7098 49.0061 21.3916C49.2372 21.0734 49.388 20.7041 49.4458 20.3151C49.5037 19.9261 49.4668 19.5289 49.3383 19.1572C48.9905 18.3002 48.6396 17.4462 48.2918 16.5922C47.5371 15.4432 45.8913 16.4276 46.2578 17.6139C46.4977 18.0493 46.7053 18.5019 46.8788 18.9678C47.2111 19.8591 46.7857 20.1168 45.8944 20.1075H37.9695C37.2522 20.1075 36.9665 19.7224 37.2428 18.8312L38.8142 14.552H48.9812C49.2881 14.5511 49.5822 14.4288 49.7993 14.2118C50.0163 13.9948 50.1387 13.7006 50.1395 13.3937C50.1387 13.0867 50.0163 12.7926 49.7993 12.5755C49.5822 12.3585 49.2881 12.2362 48.9812 12.2354H33.8238C33.5169 12.2362 33.2228 12.3585 33.0057 12.5755C32.7887 12.7926 32.6663 13.0867 32.6655 13.3937C32.6663 13.7006 32.7887 13.9948 33.0057 14.2118C33.2228 14.4288 33.5169 14.5511 33.8238 14.552H36.4261Z" fill="#4B4B4B"/>
</svg>
