<svg width="90" height="21" viewBox="0 0 90 21" fill="none" xmlns="http://www.w3.org/2000/svg">
<path fill-rule="evenodd" clip-rule="evenodd" d="M21.4311 5.10145L8.34668 12.7155L8.26862 12.7696C8.16173 12.8207 8.04481 12.8473 7.92634 12.8477C7.79084 12.8468 7.65806 12.8096 7.54187 12.7398C7.42567 12.6701 7.33033 12.5705 7.26581 12.4513L7.21778 12.3432L5.13411 7.80962C5.12208 7.75827 5.12208 7.70484 5.13411 7.65349C5.13247 7.60467 5.14078 7.55602 5.15853 7.51051C5.17629 7.465 5.20311 7.42357 5.23737 7.38875C5.27163 7.35393 5.31262 7.32643 5.35783 7.30794C5.40305 7.28946 5.45156 7.28036 5.5004 7.2812C5.58589 7.28589 5.66868 7.3128 5.74059 7.35926L8.19055 9.08264C8.38334 9.19805 8.60247 9.26213 8.82706 9.26879C8.96145 9.26689 9.09412 9.23831 9.21737 9.18472L20.6986 4.04461C19.5292 2.73627 18.0898 1.69735 16.4797 0.999619C14.8697 0.301891 13.1274 -0.0380172 11.3731 0.00337354C5.11009 0.00337354 0 4.27279 0 9.54501C0.0364285 10.9708 0.410902 12.3675 1.0926 13.6202C1.7743 14.873 2.74374 15.9459 3.92114 16.7508C4.01602 16.8204 4.09393 16.9106 4.14904 17.0146C4.20415 17.1185 4.23504 17.2336 4.23939 17.3513C4.23517 17.4338 4.2169 17.515 4.18535 17.5914C4.00521 18.306 3.68695 19.471 3.68695 19.525C3.65467 19.6199 3.63646 19.719 3.63291 19.8192C3.63206 19.8681 3.64116 19.9166 3.65965 19.9618C3.67814 20.007 3.70564 20.048 3.74046 20.0823C3.77528 20.1165 3.81671 20.1433 3.86222 20.1611C3.90773 20.1788 3.95638 20.1872 4.0052 20.1855C4.08282 20.1883 4.15836 20.1602 4.21537 20.1075L6.68935 18.6483C6.87132 18.5382 7.07748 18.4743 7.28983 18.4621C7.40542 18.4689 7.52007 18.487 7.63211 18.5162C8.83693 18.8713 10.087 19.0493 11.3431 19.0446C17.6121 19.0446 22.7162 14.7812 22.7162 9.50297C22.7024 7.9453 22.2576 6.42186 21.4311 5.10145Z" fill="#22AC38"/>
<path d="M58.6129 6.77686H50.0801V7.54547H58.6129V6.77686Z" fill="#494949"/>
<path d="M58.6129 9.16064H50.0801V9.9833H58.6129V9.16064Z" fill="#494949"/>
<path fill-rule="evenodd" clip-rule="evenodd" d="M50.2903 16.2641H58.3728V11.6284H50.2903V16.2641ZM51.1069 12.397H57.5621V15.4955H51.1069V12.397Z" fill="#494949"/>
<path fill-rule="evenodd" clip-rule="evenodd" d="M45 9.455L45.4444 10.2476C45.9187 9.53306 46.4231 8.68638 46.9215 7.80968V16.8169H47.7382V6.0863C48.2288 5.00943 48.65 3.90229 48.9992 2.77165L48.2366 2.32129C47.5462 4.85701 46.4535 7.26552 45 9.455V9.455Z" fill="#494949"/>
<path fill-rule="evenodd" clip-rule="evenodd" d="M75.9668 9.455L76.4112 10.2476C76.8855 9.53306 77.3839 8.68638 77.8883 7.80968V16.8169H78.705V6.0863C79.1956 5.00943 79.6168 3.90229 79.966 2.77165L79.2034 2.32129C78.513 4.85701 77.4203 7.26552 75.9668 9.455V9.455Z" fill="#494949"/>
<path fill-rule="evenodd" clip-rule="evenodd" d="M55.028 3.99086C54.974 3.85876 54.8179 3.51048 54.6317 3.13818C54.4456 2.76589 54.3195 2.47765 54.2354 2.2915L53.4728 2.74186C53.737 3.24627 53.9772 3.72065 54.1874 4.17101C54.2104 4.21429 54.2266 4.26088 54.2354 4.30912H49.2634V5.12577H59.5076V4.30912H54.5056L55.028 3.99086Z" fill="#494949"/>
<path fill-rule="evenodd" clip-rule="evenodd" d="M37.494 3.67251H36.7314V6.38067H35.2842V2.5376H34.5216V6.38067H33.0204V3.67251H32.2578V7.14929H37.494V3.67251Z" fill="#494949"/>
<path d="M37.1277 8.65625H32.4919V9.42486H37.1277V8.65625Z" fill="#494949"/>
<path fill-rule="evenodd" clip-rule="evenodd" d="M38.1785 13.4843L37.8122 12.8478L36.6113 13.8566V10.9683H32.6781V12.1332C32.7802 13.7245 32.3899 14.8654 31.4772 15.5259L31.8975 16.2705H31.9275C32.483 15.8128 32.916 15.2241 33.1875 14.5574C33.459 13.8908 33.5605 13.1671 33.4828 12.4514V11.7609H35.8126V13.4603C35.8126 14.0607 35.7586 14.2529 35.5484 14.5231L36.0228 15.3398C36.4492 14.9975 37.1337 14.409 38.1065 13.5383L38.1785 13.4843Z" fill="#494949"/>
<path fill-rule="evenodd" clip-rule="evenodd" d="M31.9155 2.77156L31.201 2.34521C30.5252 3.76483 29.6089 5.05689 28.4928 6.16427L28.9672 6.96291C30.1778 5.74081 31.1745 4.32397 31.9155 2.77156V2.77156Z" fill="#494949"/>
<path fill-rule="evenodd" clip-rule="evenodd" d="M31.8315 6.72273L31.0989 6.29639C30.4169 8.00144 29.4638 9.5851 28.2766 10.9861L28.703 11.7307C29.1533 11.1963 29.6037 10.6439 30.024 10.0614V16.7387H30.7866V8.8184C31.1613 8.14909 31.4942 7.45721 31.7834 6.74675L31.8315 6.72273Z" fill="#494949"/>
<path fill-rule="evenodd" clip-rule="evenodd" d="M40.4423 2.40527H39.6557C39.2423 4.50256 38.4855 6.51723 37.4159 8.36804L37.8903 9.21472L38.2146 8.47012C38.3467 8.22993 38.4488 8.04979 38.5328 7.86964C38.6753 9.57881 39.093 11.2537 39.7698 12.8296C39.0761 13.9627 38.2042 14.9765 37.1877 15.832V15.832L37.6141 16.6367C38.5915 15.7794 39.4337 14.7793 40.1121 13.6703C40.7767 14.758 41.5645 15.7655 42.46 16.6727V16.6727L42.9103 15.8801C41.9803 14.9992 41.1833 13.9879 40.5444 12.8777C41.4091 11.2864 41.9375 8.95051 42.1477 5.9301H43.0424V5.1855H39.7098C40.0353 4.28211 40.2804 3.35176 40.4423 2.40527V2.40527ZM41.5232 6.00816C41.4481 8.05104 41.0299 10.0667 40.2862 11.9709C39.6995 10.2665 39.3284 8.49531 39.1813 6.69871C39.2617 6.46229 39.358 6.23158 39.4696 6.00816H41.5232Z" fill="#494949"/>
<path fill-rule="evenodd" clip-rule="evenodd" d="M68.4849 2.21289H67.6382V4.30857H61.1951V5.13123H67.6382V7.86341H63.4349V8.602C63.9507 9.69761 64.6045 10.7227 65.3804 11.6524C65.961 12.363 66.6041 13.0202 67.302 13.616C65.511 14.729 63.5304 15.5025 61.4593 15.8978L61.9337 16.7445C64.0659 16.2179 66.0954 15.3391 67.9385 14.1444C69.6567 15.39 71.6095 16.2745 73.6791 16.7445V16.7445L74.0213 16.108C74.0213 16.108 73.1266 15.8678 71.7575 15.3394C70.6103 14.8931 69.5149 14.3233 68.4909 13.64C70.3322 12.2778 71.7483 10.4201 72.5742 8.28375L71.8896 7.88743H68.3888V5.13123H74.916V4.30857H68.4849V2.21289ZM71.6975 8.57798C70.9106 10.3931 69.6235 11.9467 67.9865 13.0576C66.43 11.8671 65.1685 10.3344 64.2996 8.57798H71.6975Z" fill="#494949"/>
<path fill-rule="evenodd" clip-rule="evenodd" d="M87.7841 5.92409V2.40527H86.9735V5.95412H80.176V6.77677H86.9735V14.4929C86.9735 15.3396 86.415 15.7419 85.4723 15.7419H84.9979V16.5646H85.7064C85.9971 16.5929 86.2906 16.56 86.5677 16.468C86.8449 16.3759 87.0997 16.2268 87.3157 16.0302C87.4988 15.8221 87.6353 15.5773 87.7161 15.3122C87.7968 15.0471 87.82 14.7678 87.7841 14.4929V6.74675H89.9999V5.92409H87.7841Z" fill="#494949"/>
<path fill-rule="evenodd" clip-rule="evenodd" d="M81.9656 9.37068C82.44 10.3555 82.9924 11.5444 83.6289 12.9736L84.4456 12.4992C83.9952 11.5985 83.4187 10.4035 82.7042 8.94434L81.9656 9.37068Z" fill="#494949"/>
</svg>
